<svg id="CALENDAR" xmlns="http://www.w3.org/2000/svg" viewBox="0 0 1600 1400"><defs><style>.cls-1{fill:#9900cc;}.cls-2{fill:#ff66ff}.cls-3{fill:#fff;}.cls-4{fill:#262424;}.cls-5{fill:#9900cc;}</style></defs><title>Project Management</title><path class="cls-1" d="M641.93,783l18.43,83.29,89.9,406.31c3.62,16.37,13.11,27.27,23.75,27.27h455.39c9.76,0,16.55-15.86,13.23-30.88l-89.1-402.7-19.22-86.89c-3.62-16.37-13.11-27.27-23.75-27.27H655.16C645.4,752.08,638.61,767.94,641.93,783Z"/><path class="cls-2" d="M641.93,783l18.43,83.29h493.16l-19.22-86.89c-3.62-16.37-13.11-27.27-23.75-27.27H655.16C645.4,752.08,638.61,767.94,641.93,783Z"/><path class="cls-3" d="M1122.58,783l-18.43,83.29-89.9,406.31c-3.62,16.37-13.11,27.27-23.75,27.27H535.12c-9.76,0-16.55-15.86-13.23-30.88L611,866.24l19.22-86.89c3.62-16.37,13.11-27.27,23.75-27.27h455.39C1119.11,752.08,1125.9,767.94,1122.58,783Z"/><path class="cls-4" d="M990.51,1302.64H535.12c-4,0-7.7-2-10.7-5.71-5.45-6.79-7.57-18.28-5.29-28.6l89.1-402.7,19.22-86.89c3.9-17.64,14.55-29.49,26.51-29.49h455.39c4,0,7.7,2,10.7,5.71,5.45,6.79,7.57,18.28,5.29,28.6L1017,1273.16C1013.12,1290.79,1002.47,1302.64,990.51,1302.64ZM654,754.91c-9.24,0-17.67,10.07-21,25.06l-19.22,86.89-89.1,402.7c-1.9,8.6-.19,18.4,4.18,23.84,1.32,1.64,3.48,3.6,6.29,3.6H990.51c9.24,0,17.67-10.07,21-25.05l108.32-489.59h0c1.9-8.6.19-18.4-4.18-23.84-1.32-1.64-3.48-3.6-6.29-3.6H654Z"/><path class="cls-2" d="M1122.58,783l-18.43,83.29H611l19.22-86.89c3.62-16.37,13.11-27.27,23.75-27.27h455.39C1119.11,752.08,1125.9,767.94,1122.58,783Z"/><path class="cls-2" d="M1104.15,869.07H611a2.83,2.83,0,0,1-2.76-3.44l19.22-86.89c3.9-17.64,14.55-29.49,26.51-29.49h455.39c4,0,7.7,2,10.7,5.71,5.45,6.79,7.57,18.28,5.29,28.6l-18.43,83.29A2.83,2.83,0,0,1,1104.15,869.07Zm-489.64-5.65h487.37l17.94-81.07h0c1.9-8.6.19-18.4-4.18-23.84-1.32-1.64-3.48-3.6-6.29-3.6H654c-9.24,0-17.67,10.07-21,25.06Z"/><line class="cls-3" x1="1100.45" y1="883.4" x2="1122.58" y2="782.96"/><path class="cls-4" d="M1100.46,886.23a2.83,2.83,0,0,1-2.76-3.44l22.13-100.45a2.83,2.83,0,0,1,5.52,1.22L1103.21,884A2.83,2.83,0,0,1,1100.46,886.23Z"/><line class="cls-3" x1="929.55" y1="887.64" x2="848.91" y2="1252.15"/><path class="cls-4" d="M848.91,1255a2.83,2.83,0,0,1-2.76-3.44L926.79,887a2.83,2.83,0,1,1,5.52,1.22l-80.65,364.51A2.83,2.83,0,0,1,848.91,1255Z"/><line class="cls-3" x1="760.28" y1="887.64" x2="679.63" y2="1252.15"/><path class="cls-4" d="M679.63,1255a2.83,2.83,0,0,1-2.76-3.44L757.52,887a2.83,2.83,0,1,1,5.52,1.22l-80.65,364.51A2.83,2.83,0,0,1,679.63,1255Z"/><path class="cls-4" d="M1038.92,1009.11H616a2.83,2.83,0,1,1,0-5.65h422.95A2.83,2.83,0,1,1,1038.92,1009.11Z"/><path class="cls-4" d="M1006.1,1151.66H583.15a2.83,2.83,0,1,1,0-5.65H1006.1A2.83,2.83,0,1,1,1006.1,1151.66Z"/><path class="cls-2" d="M1294.91,510.22l-29.64-4.89a60.14,60.14,0,0,0-31.39-31.39L1229,444.29a5.31,5.31,0,0,0-5.24-4.44h-27.13a5.31,5.31,0,0,0-5.24,4.44l-4.89,29.65a60.15,60.15,0,0,0-31.39,31.38l-29.64,4.89a5.31,5.31,0,0,0-4.45,5.24v27.13a5.31,5.31,0,0,0,4.45,5.24l29.65,4.89a60.17,60.17,0,0,0,31.38,31.38l4.89,29.65a5.31,5.31,0,0,0,5.24,4.44h27.13a5.31,5.31,0,0,0,5.24-4.44l4.89-29.64a60.15,60.15,0,0,0,31.38-31.39l29.65-4.89a5.31,5.31,0,0,0,4.45-5.24V515.46A5.31,5.31,0,0,0,1294.91,510.22Zm-84.72,37.27A18.48,18.48,0,1,1,1228.67,529,18.48,18.48,0,0,1,1210.19,547.49Z"/><path class="cls-1" d="M1206.8,258.13l-44.33-2.66a117.79,117.79,0,0,0-10.4-25.08l29.47-33.24a8.41,8.41,0,0,0-.35-11.52l-30.35-30.35a8.41,8.41,0,0,0-11.52-.35l-33.24,29.47A117.76,117.76,0,0,0,1081,174l-2.66-44.32a8.41,8.41,0,0,0-8.39-7.9H1027a8.41,8.41,0,0,0-8.39,7.9L1016,174a117.78,117.78,0,0,0-25.08,10.41l-33.24-29.47a8.41,8.41,0,0,0-11.52.35l-30.35,30.35a8.41,8.41,0,0,0-.35,11.52l29.47,33.24a117.78,117.78,0,0,0-10.41,25.08l-44.32,2.66a8.41,8.41,0,0,0-7.9,8.39v42.92a8.41,8.41,0,0,0,7.9,8.39l44.32,2.66a117.78,117.78,0,0,0,10.41,25.09l-29.47,33.24a8.41,8.41,0,0,0,.35,11.52l30.35,30.35a8.41,8.41,0,0,0,11.52.35l33.23-29.47A117.79,117.79,0,0,0,1016,402l2.66,44.32a8.41,8.41,0,0,0,8.39,7.9h42.92a8.41,8.41,0,0,0,8.39-7.9L1081,402a117.75,117.75,0,0,0,25.09-10.41L1139.32,421a8.41,8.41,0,0,0,11.52-.35l30.35-30.35a8.41,8.41,0,0,0,.35-11.52l-29.47-33.24a117.78,117.78,0,0,0,10.4-25.08l44.33-2.66a8.41,8.41,0,0,0,7.9-8.39V266.52A8.41,8.41,0,0,0,1206.8,258.13Zm-158.32,73.5A43.65,43.65,0,1,1,1092.12,288,43.64,43.64,0,0,1,1048.48,331.62Z"/><circle class="cls-1" cx="923.61" cy="575.58" r="74.85"/><path class="cls-2" d="M848.51,488.47h7.79a15.62,15.62,0,0,1,15.62,15.62v11.47a6.39,6.39,0,0,1-6.39,6.39H839.27a6.39,6.39,0,0,1-6.39-6.39V504.09A15.62,15.62,0,0,1,848.51,488.47Z" transform="translate(-107.57 750.71) rotate(-45)"/><path class="cls-2" d="M981.69,488.47H1008a6.39,6.39,0,0,1,6.39,6.39v11.47a15.62,15.62,0,0,1-15.62,15.62h-7.79a15.62,15.62,0,0,1-15.62-15.62V494.85a6.39,6.39,0,0,1,6.39-6.39Z" transform="translate(1341.03 1565.89) rotate(-135)"/><circle class="cls-3" cx="923.61" cy="575.58" r="47.15"/><path class="cls-4" d="M923.61,625.23a49.65,49.65,0,1,1,49.65-49.65A49.7,49.7,0,0,1,923.61,625.23Zm0-94.3a44.65,44.65,0,1,0,44.65,44.65A44.7,44.7,0,0,0,923.61,530.93Z"/><path class="cls-2" d="M930.07,575.58a6.46,6.46,0,0,1-12.92,0,6,6,0,0,1,.15-1.35s0,0,0,0l6.31-35.29,6.31,35.29s0,0,0,0A6,6,0,0,1,930.07,575.58Z"/><path class="cls-2" d="M919,571a6.46,6.46,0,0,1,9.13,9.13,6,6,0,0,1-1.06.85s0,0,0,0L897.7,601.49l20.49-29.42s0,0,0,0A6,6,0,0,1,919,571Z"/><polygon class="cls-3" points="535.85 1028.71 581.38 1128.06 547.02 1142.55 491.18 1055.77 535.85 1028.71"/><path class="cls-4" d="M547,1145.38a2.83,2.83,0,0,1-2.38-1.3L488.8,1057.3a2.83,2.83,0,0,1,.91-3.95l44.67-27.06a2.83,2.83,0,0,1,4,1.24l45.53,99.35a2.83,2.83,0,0,1-1.47,3.78l-34.36,14.49A2.82,2.82,0,0,1,547,1145.38Zm-51.89-88.7,53,82.34,29.48-12.44-43-93.81Z"/><path class="cls-2" d="M542.68,1285.09l9.5,9.75L672,1178.12s-4.48-4.6-11.93-11.46c-17.82-16.41-52.66-45.79-83.81-56.13L532,1153.61s22,46,4,103a28.52,28.52,0,0,0,4.79,26.24A29,29,0,0,0,542.68,1285.09Z"/><path class="cls-3" d="M542.68,1285.09l9.5,9.75L672,1178.12s-4.48-4.6-11.93-11.46L540.75,1282.89A29,29,0,0,0,542.68,1285.09Z"/><path class="cls-4" d="M552.18,1297.67h0a2.83,2.83,0,0,1-2-.85l-9.5-9.75h0a32,32,0,0,1-2.12-2.41,2.83,2.83,0,0,1,.24-3.78l119.28-116.23a2.82,2.82,0,0,1,3.89-.05c7.42,6.83,11.85,11.38,12,11.57a2.83,2.83,0,0,1-.05,4L554.15,1296.86A2.83,2.83,0,0,1,552.18,1297.67Zm-7.48-14.55,7.53,7.73,115.71-112.75c-1.69-1.67-4.38-4.29-7.86-7.53L544.64,1283l0.06,0.06h0Z"/><path class="cls-1" d="M681.93,753.11c-12.79,17.77-161.83,122.25-192,143.31l45.76,117.1-55.12,56.37s-54.39-89.21-89.39-147.27c-3.1-5.13-6-10-8.78-14.58a53.41,53.41,0,0,1,6.72-63.92c4.5-4.82,9.4-10.07,14.62-15.59,48.42-51.48,122.07-128,122.07-128L536.44,639c5.16-29.73,25.05-55.15,53.13-66.16A84.55,84.55,0,0,1,625.42,567c53.71,3,58.56,43.36,58.56,43.36S696.18,733.33,681.93,753.11Z"/><path class="cls-4" d="M507.26,1022.82a2.83,2.83,0,0,1-2.57-1.65l-59.38-128.9a2.83,2.83,0,0,1,.51-3.12L614.3,710.55a2.83,2.83,0,1,1,4.11,3.88L451.24,891.64l58.58,127.17A2.83,2.83,0,0,1,507.26,1022.82Z"/><path class="cls-4" d="M487,897.69l-0.32,0-56.29-6.29a2.83,2.83,0,0,1,.63-5.62l56.29,6.29A2.83,2.83,0,0,1,487,897.69Z"/><path class="cls-3" d="M421.41,871.19c0,23-12.44,42.71-30.26,51.43-3.1-5.13-6-10-8.78-14.58a53.41,53.41,0,0,1,6.72-63.92c4.5-4.82,9.4-10.07,14.62-15.59C414.54,838.84,421.41,854.12,421.41,871.19Z"/><path class="cls-2" d="M459.77,1040l57.8-56.32A10.94,10.94,0,0,1,534.71,986l25.2,44.08a10.94,10.94,0,0,1-1.86,13.27L504.1,1096a10.94,10.94,0,0,1-16.52-1.44l-29-40.33A10.94,10.94,0,0,1,459.77,1040Z"/><path class="cls-4" d="M620.91,701.3a2.81,2.81,0,0,1-1.55-.46l-14.71-9.64a19.77,19.77,0,0,1-8.85-18.76l6.3-57.8a2.83,2.83,0,0,1,5.62.61l-6.3,57.8a14.14,14.14,0,0,0,6.33,13.41l14.71,9.64A2.83,2.83,0,0,1,620.91,701.3Z"/><polygon class="cls-3" points="508.09 1101.43 471.36 1204.36 436.64 1190.76 457.21 1089.64 508.09 1101.43"/><path class="cls-4" d="M471.36,1207.19a2.83,2.83,0,0,1-1-.19l-34.72-13.6a2.83,2.83,0,0,1-1.74-3.2l20.57-101.12a2.83,2.83,0,0,1,3.41-2.19l50.88,11.8a2.83,2.83,0,0,1,2,3.71L474,1205.31A2.83,2.83,0,0,1,471.36,1207.19ZM439.89,1189l29.8,11.67,34.68-97.19-45-10.42Z"/><path class="cls-2" d="M335,1285.32v14.5H513s0-6.84-.58-17.6c-1.4-25.75-6.13-74-22.2-105.08H424.52s-17.44,51.45-73.54,81.51a30.36,30.36,0,0,0-15.85,23.57A30.84,30.84,0,0,0,335,1285.32Z"/><path class="cls-3" d="M335,1285.32v14.5H513s0-6.84-.58-17.6H335.13A30.84,30.84,0,0,0,335,1285.32Z"/><path class="cls-4" d="M513,1302.64H335a2.83,2.83,0,0,1-2.83-2.83v-14.5a33.81,33.81,0,0,1,.18-3.39,2.83,2.83,0,0,1,2.81-2.54H512.45a2.83,2.83,0,0,1,2.82,2.67c0.58,10.72.58,17.47,0.58,17.76A2.83,2.83,0,0,1,513,1302.64ZM337.79,1297H510.17c0-2.54-.15-6.68-0.41-12h-172c0,0.09,0,.19,0,0.28V1297Z"/><path class="cls-1" d="M759.37,605.75s-9.19-39.59-62.91-36.76a84.49,84.49,0,0,0-35,9.63c-26.72,14-43.74,41.41-45.65,71.52l-3.93,62.35L511.62,844.78l-12.36,16.31a98.43,98.43,0,0,0-18.75,44l-7,32.33-33.73,154.94,78.82-1.89,74-175.07S760.79,769,772.8,747.84,759.37,605.75,759.37,605.75Z"/><path class="cls-4" d="M519.31,837.47a2.83,2.83,0,0,1-2.25-4.54l92-121.46L613,650a2.83,2.83,0,1,1,5.64.36l-3.93,62.35a2.83,2.83,0,0,1-.57,1.53L521.56,836.35A2.82,2.82,0,0,1,519.31,837.47Z"/><path class="cls-4" d="M439.75,1095.16a2.83,2.83,0,0,1-2.76-3.43l32-147.15a2.83,2.83,0,1,1,5.53,1.2l-31.27,143.63,75.22-1.81h0.07a2.83,2.83,0,0,1,.07,5.65l-78.82,1.89h-0.07Z"/><path class="cls-4" d="M502.77,1070.89a2.83,2.83,0,0,1-2.71-3.65L551,899.7a2.82,2.82,0,0,1,.55-1L702.85,721.32l2.8-108.57a2.83,2.83,0,0,1,5.65.15l-2.83,109.57a2.82,2.82,0,0,1-.68,1.76L556.2,901.91l-50.72,167A2.83,2.83,0,0,1,502.77,1070.89Z"/><path class="cls-3" d="M511.62,844.78l-12.36,16.31a98.43,98.43,0,0,0-18.75,44l-7,32.33c18.24-.72,36.5-13.52,45.55-33.9C528.56,882,525,858.58,511.62,844.78Z"/><path class="cls-2" d="M445.76,1056.39h80.7a10.94,10.94,0,0,1,10.59,13.68l-12.72,49.15a10.94,10.94,0,0,1-10.59,8.2H438.42a10.94,10.94,0,0,1-10.82-12.56l7.34-49.15A10.94,10.94,0,0,1,445.76,1056.39Z"/><path class="cls-4" d="M706.22,703a2.81,2.81,0,0,1-1.28-.31l-15.67-8A19.77,19.77,0,0,1,678.43,677V618.83a2.83,2.83,0,0,1,5.66,0V677a14.14,14.14,0,0,0,7.75,12.65l15.67,8A2.83,2.83,0,0,1,706.22,703Z"/><path class="cls-3" d="M496.31,475.77S478.19,577,479.8,586.78c2.22,13.46,8.13,32,10.72,39.36,0,0-2.36,21.21,2.83,29.22s20.74,11.31,31.1,11.31,11.31-16,11.31-16,2.12,15.05,9.19,15.05,8.72-35.08,4.12-45.68-15.85-6.6-15.85-6.6l-0.41-38.07,19.66-84.54Z"/><path class="cls-4" d="M524.45,669.5c-8.76,0-27-2.63-33.48-12.6-5.21-8.06-3.75-26.25-3.33-30.42-2.39-6.84-8.37-25.5-10.63-39.24-1.64-10,14.66-101.56,16.52-112A2.83,2.83,0,0,1,497,473l56.16,15.05a2.83,2.83,0,0,1,2,3.37l-19.58,84.21L536,609.93c5.15-.56,12.15.9,15.65,9,4.15,9.57,3.81,38.05-1.76,46.54-1.68,2.56-3.62,3.09-5,3.09-4.3,0-7.14-3.39-9-7.2C533.84,665.8,530.23,669.5,524.45,669.5ZM498.56,479.29c-7.21,40.53-17.06,100.39-16,107,2.27,13.76,8.42,32.73,10.6,38.88a2.83,2.83,0,0,1,.15,1.26c-0.62,5.62-1.41,21.5,2.39,27.37,4.21,6.51,17.94,10,28.73,10,7.57,0,8.48-13.23,8.49-13.37a2.83,2.83,0,0,1,5.62-.22c0.74,5.18,3.29,12.32,6.21,12.61,1.07-.87,3.27-6.14,3.91-17.95,0.53-9.79-.37-19.57-2.19-23.77-3.5-8.08-11.95-5.19-12.3-5.06a2.83,2.83,0,0,1-3.78-2.63L530,575.39a2.85,2.85,0,0,1,.07-0.67l19-81.87Z"/><path class="cls-2" d="M485.16,499.67l87.55,23.47c15.92-61.87,21-131.19.78-149.17C518.17,324.7,493.82,431.62,485.16,499.67Z"/><path class="cls-4" d="M571.72,514.75a2.84,2.84,0,0,1-.75-0.1l-77-21.1a2.83,2.83,0,1,1,1.5-5.45l77,21.1A2.83,2.83,0,0,1,571.72,514.75Z"/><path class="cls-2" d="M632.71,327.46c-33.63,0-91.34,34.25-91.34,34.25l-1.85,22.11s-15.12,41.76-15.12,57.5,26.85,51.84,26.85,51.84-19.13,123.67-26.85,184.16c0,0,91,58,254,5.55l-39.83-188.1L733.3,364.08S677.35,327.46,632.71,327.46Z"/><path class="cls-4" d="M547.68,519.25a2.86,2.86,0,0,1-.43,0,2.83,2.83,0,0,1-2.37-3.22c1.72-11.28,2.95-19.25,3.39-22.1-4.38-6-26.7-37.38-26.7-52.57,0-15.45,13.59-53.72,15.16-58.11L538,368a2.83,2.83,0,1,1,5.64.47l-1.3,15.57a2.83,2.83,0,0,1-.16.73c-0.15.41-15,41.47-15,56.54,0,12.14,19,40.32,26.29,50.15a2.83,2.83,0,0,1,.53,2.12s-1.39,9-3.56,23.25A2.83,2.83,0,0,1,547.68,519.25Z"/><path class="cls-4" d="M639.11,689.46c-34.32,0-72.65-4.84-104-21.25a2.83,2.83,0,1,1,2.62-5c43.19,22.58,100.38,22.58,140.76,18.61a482.13,482.13,0,0,0,78.39-14.28,2.83,2.83,0,0,1,1.58,5.43,488,488,0,0,1-79.32,14.47C667,688.62,653.4,689.46,639.11,689.46Z"/><path class="cls-3" d="M635.26,317.33c-18.89,1.24-29.62,13.78-30.86,24.07s6.17,19.75,13.17,21.81c0,0,7-19.54,12.34-19.54s9.26,22.63,9.26,22.63,25.3,0,32.09-21.6C675.94,329.8,657.27,315.89,635.26,317.33Z"/><path class="cls-4" d="M639.17,369.12a2.83,2.83,0,0,1-2.79-2.35c-1.65-9.53-4.68-18.77-6.61-20.23-2,.88-6.5,9.12-9.54,17.62a2.83,2.83,0,0,1-3.46,1.76c-8.3-2.44-16.57-13.25-15.18-24.86,1.43-11.9,13.65-25.26,33.48-26.55h0c14.32-.94,28.15,4.28,35.22,13.28,4.25,5.42,5.55,11.72,3.66,17.75C666.63,368.85,639.44,369.12,639.17,369.12Zm-9.26-28.28c5.93,0,9.53,11.7,11.59,22.49,6.07-.58,22.07-3.61,27.06-19.48,1.69-5.38-.54-9.8-2.71-12.56-5.86-7.46-18.08-11.94-30.41-11.13h0c-16.79,1.1-27.08,11.94-28.23,21.58-1,7.92,3.93,14.85,8.75,17.69C619.05,351.45,624.23,340.84,629.91,340.84Z"/><path class="cls-3" d="M622.92,329.67s0.65,6.49,8.74,9.57a31,31,0,0,0,22.27-9.57l-2.25-41L644,290.24l-18.7,3.92-2,29.52Z"/><path class="cls-4" d="M632.1,342.08h-0.58a2.83,2.83,0,0,1-.87-0.18c-9.6-3.66-10.51-11.59-10.54-11.93a2.84,2.84,0,0,1,0-.47L622.47,294a2.83,2.83,0,0,1,2.24-2.58l26.37-5.53a2.83,2.83,0,0,1,3.41,2.61l2.25,41a2.83,2.83,0,0,1-.76,2.09A33.8,33.8,0,0,1,632.1,342.08Zm-6.34-12.53c0.18,0.91,1.25,4.7,6.45,6.88A28.62,28.62,0,0,0,651,328.58l-2-36.51L628,296.49Zm-2.84.13h0Z"/><path class="cls-4" d="M623.32,323.68c22.39-2.21,24.27-30.76,24.27-30.76a34.93,34.93,0,0,0-3.6-2.68l-18.7,3.92Z"/><path class="cls-3" d="M540.58,653.12c0.52,5.92,7.66,5.59,10.74,3.16,0,0-2.15,7.06,11.74,15.3s29.1,5.66,35-5.27,12.78-12.19,12.78-12.19S767.7,631.4,786.74,606c8.87-11.83,7.15-56.36-.69-104.08-10.36-63-31.39-131.66-52.75-137.86-71.14-20.65-46.34,86.56-26.84,152.33,8.46,28.52,13.2,47.89,13.2,47.89L597.18,628.56s-30.3-12.52-34.87-12.61S540.06,647.2,540.58,653.12Z"/><path class="cls-4" d="M579.68,679.25A35.78,35.78,0,0,1,561.62,674c-8.64-5.12-11.76-10.06-12.79-13.56a10.76,10.76,0,0,1-6.46-.45,7.58,7.58,0,0,1-4.6-6.63c-0.57-6.47,12.91-30.26,19.42-37.22,2-2.13,3.59-3,5.19-3,4.5,0.09,26.29,8.88,34.67,12.32l119.34-62.62c-1.47-5.79-5.88-22.86-12.63-45.61-24.4-82.3-27.19-131.44-8.53-150.2,8.67-8.72,21.75-10.62,38.87-5.64,26.3,7.63,46.79,91.67,54.75,140.12,6.93,42.22,10.62,92.29.16,106.23-8.32,11.09-40.87,22.74-96.76,34.64-40.3,8.58-78.86,14.25-80.91,14.55-0.41.1-5.83,1.56-10.78,10.75A21.91,21.91,0,0,1,586.9,678.3,27.1,27.1,0,0,1,579.68,679.25ZM554.05,657c-0.07.58-.34,5.69,10.45,12.1,6.93,4.11,14.55,5.46,20.89,3.71A16.09,16.09,0,0,0,595.58,665c6.35-11.79,13.92-13.47,14.76-13.63l0.1,0c43.31-6.27,159-26.94,174-47,7.62-10.16,7.13-51.12-1.21-101.93-12.09-73.55-33.43-130.58-50.75-135.6-15-4.35-26.19-2.94-33.29,4.2-16.83,16.93-13.49,65.58,9.95,144.61,8.38,28.26,13.19,47.82,13.24,48A2.83,2.83,0,0,1,721,566.8L598.49,631.06a2.83,2.83,0,0,1-2.39.11C582,625.36,566,619.31,562.58,618.81c-4.42,2.74-19.49,29.38-19.19,34.07a2,2,0,0,0,1.22,1.93,5.68,5.68,0,0,0,5-.75,2.89,2.89,0,0,1,3.49-.16A2.69,2.69,0,0,1,554.05,657Zm0,0.06h0Z"/><path class="cls-2" d="M703.11,514.72l89.58-13.81c-10.36-63-33.67-128.52-59.4-136.84C662.81,341.29,683.61,449,703.11,514.72Z"/><path class="cls-2" d="M703.11,517.36a2.64,2.64,0,0,1-2.53-1.89c-13.29-44.84-31.72-123.83-5.79-149.14,8.93-8.71,22.15-10.31,39.32-4.76,27.83,9,51.23,78.32,61.19,138.92a2.64,2.64,0,0,1-2.2,3l-89.58,13.81A2.65,2.65,0,0,1,703.11,517.36ZM716,363.63c-7.23,0-13.08,2.16-17.51,6.48-24.34,23.75-4.13,105.27,6.51,141.65l84.66-13c-10.24-60.2-32.93-124.29-57.16-132.12A54.29,54.29,0,0,0,716,363.63Z"/><path class="cls-4" d="M698.95,502.91a2.83,2.83,0,0,1-2.73-2.09c-12.76-47.06-23.75-108.23-3.65-132.36,6.41-7.7,15.51-11.12,27-10.16a2.83,2.83,0,0,1-.47,5.64c-9.73-.81-17,1.86-22.23,8.15-19.52,23.44-5.39,89.79,4.77,127.26A2.83,2.83,0,0,1,698.95,502.91Z"/><path class="cls-4" d="M708.3,505.59a2.83,2.83,0,0,1-.41-5.62l79-11.71a2.83,2.83,0,0,1,.83,5.59l-79,11.71A2.83,2.83,0,0,1,708.3,505.59Z"/><path class="cls-4" d="M674.4,183.51c-13.11,9.46,6.37,36.76,14,45.07s7.18,37.51,28,42.1-4.72,50,51.44,76.43c43.28,20.34,100-17,83.66-46.55s-70.48-31.74-85.12-59c-9.31-17.32-8.06-46-41.09-48.12C700.61,191.88,684.75,176,674.4,183.51Z"/><path class="cls-3" d="M598.49,264.65s-8.87-13.17-18.39-8.69-6.32,36.23,17.13,31.9Z"/><path class="cls-4" d="M593,291.08c-10.66,0-17-7.37-19.41-15-2.72-8.45-1.47-19.54,5.28-22.72,11.58-5.44,21.52,9.05,21.94,9.67a2.83,2.83,0,0,1,.48,1.73L600,288a2.83,2.83,0,0,1-2.31,2.63A26,26,0,0,1,593,291.08Zm-8.84-33.21a6.71,6.71,0,0,0-2.89.65c-3,1.4-4.62,8.63-2.3,15.87,1.19,3.71,5,11.84,15.53,11l1.08-19.86C594,263.46,589.29,257.86,584.18,257.86Z"/><path class="cls-3" d="M664.52,204.31l5.43-2.57a5.28,5.28,0,0,1,5.34.46,17.78,17.78,0,0,1,5.42,5.86,12.3,12.3,0,0,1,.73,8.31,5.22,5.22,0,0,1-2.36,3.27l-5.83,3.63a5.3,5.3,0,0,1-7.76-2.62L661.84,211A5.3,5.3,0,0,1,664.52,204.31Z"/><path class="cls-3" d="M592.52,269.88c1.08,19.64,9.81,42.31,33.57,41.67,17.47-.47,36.79-21.5,38.26-48s-3.15-49.24-35.07-47.65a77.12,77.12,0,0,0-10.15,1.34c-18.51,4.09-25.58,5.75-27,42.17C592,262.6,592.31,266.17,592.52,269.88Z"/><path class="cls-4" d="M625.1,314.39c-24.28,0-34.22-22.79-35.4-44.35l-0.08-1.42c-0.2-3.29-.38-6.4-0.27-9.35,1.39-36.82,8.58-40.27,29.17-44.82a80.32,80.32,0,0,1,10.62-1.4c12.33-.61,21.79,2.3,28.11,8.65,10.29,10.35,10.71,27.87,9.93,42-1.62,29.27-22.91,50.21-41,50.7H625.1Zm7.31-95.77q-1.46,0-3,.08a74.55,74.55,0,0,0-9.68,1.28c-18,4-23.44,5.18-24.74,39.52-0.1,2.67.08,5.65,0.26,8.8l0.08,1.43h0c0.51,9.22,4.16,39,29.76,39H626c15.6-.42,34.1-19.91,35.51-45.36,1.05-19-1.58-30.93-8.29-37.68C648.51,220.94,641.68,218.62,632.41,218.62Z"/><path class="cls-3" d="M665.14,200l5.38-2.55a5.23,5.23,0,0,1,5.29.46,17.62,17.62,0,0,1,5.37,5.8,12.19,12.19,0,0,1,.72,8.23,5.18,5.18,0,0,1-2.33,3.24l-5.78,3.6a5.25,5.25,0,0,1-7.69-2.6l-3.63-9.59A5.25,5.25,0,0,1,665.14,200Z"/><path class="cls-4" d="M656.63,261.28a18.85,18.85,0,0,1-11.91-15.16c-0.34-2.28-.56-5.35-1.22-8.12-13.39,14-38.68,22.54-49.69,25.73a8.58,8.58,0,0,1-9.52-3.22c-12.86-19,2.47-55.37,27.11-54.67,28-19.37,60.65-5.29,65.31,18.34C681.88,250.38,664.52,264.57,656.63,261.28Z"/><path class="cls-3" d="M656.19,264.65s12.89-13.31,26.45-9,5.68,35.94-27.82,32Z"/><path class="cls-4" d="M660.46,290.81a50.62,50.62,0,0,1-6-.36,2.83,2.83,0,0,1,.67-5.62c18.15,2.15,28.6-6.95,30.63-16.31,0.83-3.83.28-8.78-4-10.15-11.76-3.76-23.44,8.13-23.56,8.25a2.83,2.83,0,1,1-4.06-3.93c0.58-.6,14.28-14.52,29.35-9.7,6.4,2,9.54,8.77,7.81,16.74C689,280.37,678.47,290.81,660.46,290.81Z"/><path class="cls-3" d="M562.9,680.46H355.84a8.13,8.13,0,0,1-7.94-6.39L320.07,547.54a8.13,8.13,0,0,1,7.94-9.88H535.07A8.13,8.13,0,0,1,543,544l27.83,126.53A8.13,8.13,0,0,1,562.9,680.46Z"/><path class="cls-4" d="M562.9,683.29H355.84a11,11,0,0,1-10.71-8.61L317.31,548.15A11,11,0,0,1,328,534.83H535.07a11,11,0,0,1,10.71,8.61L573.6,670A11,11,0,0,1,562.9,683.29ZM328,540.48a5.31,5.31,0,0,0-5.18,6.45l27.83,126.53a5.34,5.34,0,0,0,5.18,4.17H562.9a5.31,5.31,0,0,0,5.18-6.45L540.25,544.65a5.34,5.34,0,0,0-5.18-4.17H328Z"/><path class="cls-3" d="M549.67,680.46H342.62a8.13,8.13,0,0,1-7.94-6.39L306.85,547.54a8.13,8.13,0,0,1,7.94-9.88H521.85a8.13,8.13,0,0,1,7.94,6.39l27.83,126.53A8.13,8.13,0,0,1,549.67,680.46Z"/><path class="cls-4" d="M549.67,683.29H342.62a11,11,0,0,1-10.71-8.61L304.08,548.15a11,11,0,0,1,10.71-13.32H521.85a11,11,0,0,1,10.71,8.61L560.38,670A11,11,0,0,1,549.67,683.29ZM314.79,540.48a5.31,5.31,0,0,0-5.18,6.45l27.83,126.53a5.34,5.34,0,0,0,5.18,4.17H549.67a5.31,5.31,0,0,0,5.18-6.45L527,544.65a5.34,5.34,0,0,0-5.18-4.17H314.79Z"/><rect class="cls-3" x="540.65" y="680.46" width="150.57" height="19.54" rx="6.91" ry="6.91"/><path class="cls-4" d="M684.31,702.83H547.57a9.75,9.75,0,0,1-9.74-9.74v-5.72a9.75,9.75,0,0,1,9.74-9.74H684.31a9.75,9.75,0,0,1,9.74,9.74v5.72A9.75,9.75,0,0,1,684.31,702.83ZM547.57,683.29a4.09,4.09,0,0,0-4.08,4.08v5.72a4.09,4.09,0,0,0,4.08,4.08H684.31a4.09,4.09,0,0,0,4.08-4.08v-5.72a4.09,4.09,0,0,0-4.08-4.08H547.57Z"/><rect class="cls-3" x="355.84" y="680.46" width="217.17" height="19.54" rx="6.91" ry="6.91"/><path class="cls-4" d="M566.1,702.83H362.75a9.75,9.75,0,0,1-9.74-9.74v-5.72a9.75,9.75,0,0,1,9.74-9.74H566.1a9.75,9.75,0,0,1,9.74,9.74v5.72A9.75,9.75,0,0,1,566.1,702.83ZM362.75,683.29a4.09,4.09,0,0,0-4.08,4.08v5.72a4.09,4.09,0,0,0,4.08,4.08H566.1a4.09,4.09,0,0,0,4.08-4.08v-5.72a4.09,4.09,0,0,0-4.08-4.08H362.75Z"/><path class="cls-3" d="M790.66,679.32a70,70,0,0,0-14.45,137.79,13.92,13.92,0,0,0,17.19-13.59h0A13.85,13.85,0,0,0,783.06,790a42.07,42.07,0,1,1,52.4-40.79h27.92A70,70,0,0,0,790.66,679.32Z"/><path class="cls-4" d="M779.56,820.35a16.52,16.52,0,0,1-4-.51,72.82,72.82,0,0,1,15-143.35l0.11,2.83-0.11-2.83a72.82,72.82,0,0,1,75.66,72.76,2.83,2.83,0,0,1-2.83,2.83H835.45a2.83,2.83,0,0,1-2.83-2.83,39.23,39.23,0,0,0-78.39-2.47,39.31,39.31,0,0,0,29.51,40.52A16.81,16.81,0,0,1,779.56,820.35ZM793.42,682.1q-1.32,0-2.65.05A67.16,67.16,0,0,0,776.9,814.37a10.8,10.8,0,0,0,9.34-2,11.15,11.15,0,0,0,4.33-8.85,11,11,0,0,0-8.2-10.73,44.9,44.9,0,1,1,55.83-46.36h22.3A67.17,67.17,0,0,0,793.42,682.1Z"/><path class="cls-3" d="M956.47,679.32A70,70,0,0,0,942,817.11a13.92,13.92,0,0,0,17.19-13.59h0A13.85,13.85,0,0,0,948.87,790a42.07,42.07,0,1,1,52.4-40.79h27.92A70,70,0,0,0,956.47,679.32Z"/><path class="cls-4" d="M945.38,820.35a16.52,16.52,0,0,1-4-.51,72.82,72.82,0,0,1,15-143.35h0A72.82,72.82,0,0,1,1032,749.25a2.83,2.83,0,0,1-2.83,2.83h-27.92a2.83,2.83,0,0,1-2.83-2.83,39.23,39.23,0,0,0-78.39-2.47,39.31,39.31,0,0,0,29.51,40.52A16.81,16.81,0,0,1,945.38,820.35Zm11.2-138.21a67.16,67.16,0,0,0-13.86,132.22,10.8,10.8,0,0,0,9.33-2,11.15,11.15,0,0,0,4.33-8.85,11,11,0,0,0-8.2-10.73A44.9,44.9,0,1,1,1004,746.42h22.3a67.16,67.16,0,0,0-69.73-64.28h0Zm-0.11-2.83h0Z"/><circle class="cls-2" cx="306.65" cy="352.92" r="8.24"/><path class="cls-5" d="M319.88,1087.48L323,1096a19.24,19.24,0,0,0,11.48,11.48l8.47,3.09-8.47,3.09A19.24,19.24,0,0,0,323,1125.1l-3.09,8.47-3.09-8.47a19.24,19.24,0,0,0-11.48-11.48l-8.47-3.09,8.47-3.09A19.24,19.24,0,0,0,316.79,1096Z"/><path class="cls-5" d="M398.08,210.44l3.09,8.47a19.24,19.24,0,0,0,11.48,11.48l8.47,3.09-8.47,3.09a19.24,19.24,0,0,0-11.48,11.48l-3.09,8.47L395,248.06a19.24,19.24,0,0,0-11.48-11.48L375,233.49l8.47-3.09A19.24,19.24,0,0,0,395,218.91Z"/><path class="cls-2" d="M1255.26,832.66l4.5,12.35a28,28,0,0,0,16.73,16.73l12.35,4.5-12.35,4.5a28,28,0,0,0-16.73,16.73l-4.5,12.35-4.5-12.35A28,28,0,0,0,1234,870.75l-12.35-4.5,12.35-4.5A28,28,0,0,0,1250.76,845Z"/></svg>