<?xml version="1.0" encoding="iso-8859-1"?>
<!-- Generator: Adobe Illustrator 17.1.0, SVG Export Plug-In . SVG Version: 6.00 Build 0)  -->
<!DOCTYPE svg PUBLIC "-//W3C//DTD SVG 1.1//EN" "http://www.w3.org/Graphics/SVG/1.1/DTD/svg11.dtd">
<svg version="1.1" id="Capa_1" xmlns="http://www.w3.org/2000/svg" xmlns:xlink="http://www.w3.org/1999/xlink" x="0px" y="0px"
	 viewBox="0 0 204.878 204.878" style="enable-background:new 0 0 204.878 204.878;" xml:space="preserve">
<path d="M8.73,204.878c-0.425,0-0.843-0.136-1.189-0.393c-0.307-0.227-0.54-0.535-0.676-0.886l-0.752,0.574
	c-0.711,0.542-1.697,0.547-2.412,0.011c-0.716-0.537-0.989-1.483-0.667-2.318l0.59-1.533c-0.359-0.095-0.692-0.29-0.957-0.575
	c-0.569-0.615-0.695-1.521-0.314-2.268c0.432-0.846,10.748-20.901,25.882-36.036c14.435-14.436,35.261-26.293,37.91-27.775
	l3.996-3.996c0.011-0.012,0.022-0.022,0.034-0.034c0.011-0.012,0.023-0.022,0.035-0.034l9.408-9.408c0.78-0.781,2.047-0.781,2.828,0
	l1.668,1.668c2.992-2.475,10.155-8.586,14.591-13.909c4.645-5.573,7.455-12.517,10.708-20.558c0.706-1.743,1.426-3.523,2.184-5.333
	c4.107-9.813,9.212-14.286,10.051-14.977l41.056-41.055c21.921-21.922,35.205-25.813,35.76-25.969
	c1.044-0.292,2.131,0.302,2.449,1.339c0.311,1.007,2.979,9.975,1.26,14.602c-1.455,3.918-5.635,5.073-10.475,6.41
	c-1.82,0.503-3.701,1.022-5.698,1.731c-6.819,2.42-13.357,8.684-13.423,8.746c-0.451,0.423-42.873,40.067-48.14,46.709
	c-2.679,3.377-4.185,7.293-5.93,11.827c-1.586,4.122-3.383,8.795-6.412,13.881c-5.226,8.775-16.804,19.605-21.077,23.458l0.679,0.68
	c0.57,0.569,0.725,1.399,0.461,2.111l2.633,2.633c0.375,0.375,0.586,0.884,0.586,1.414s-0.211,1.039-0.586,1.414l-0.895,0.895
	c2.263,1.334,10.158,5.975,13.612,7.869c0.943,0.518,1.731,0.969,2.404,1.385c0.795-0.852,1.629-1.439,2.509-1.771
	c1.293-0.49,2.641-0.412,3.904,0.221c2.298,1.148,2.693,5.246,1.176,12.182c0.382,0.86,0.793,1.721,1.141,2.271
	c0.623-0.726,1.502-2.185,2.118-3.575c0.448-1.01,1.628-1.464,2.639-1.019c1.009,0.446,1.466,1.627,1.02,2.637
	c-1.483,3.358-3.872,7.161-6.836,6.171c-1.912-0.638-2.991-3.026-4.595-6.871c-0.571-1.367-1.217-2.917-1.665-3.549
	c-0.186-0.262-0.355-0.499-0.522-0.719c-0.218,0.461-0.444,0.977-0.676,1.55c-2.126,5.26-1.715,15.653-1.627,17.429
	c0.569,1.693,0.821,3.377,0.446,5.097c-1.003,4.59-7.884,8.568-8.665,9.007c-0.962,0.541-2.181,0.198-2.722-0.765
	c-0.541-0.962-0.199-2.181,0.763-2.723c2.521-1.42,6.271-4.336,6.716-6.373c0.422-1.932-0.827-4.389-2.272-7.232
	c-0.749-1.474-1.598-3.144-2.316-4.947c-1.136-2.852-1.757-6.214-2.358-9.466c-0.582-3.148-1.131-6.123-2.052-8.044
	c-1.086-2.267-3.324-4.441-4.936-5.776c-0.038-0.026-0.074-0.055-0.109-0.083l-3.184,3.184c-0.75,0.75-2.078,0.75-2.828,0
	l-2.233-2.233c-2.256,2.424-4.125,4.471-4.75,5.251c-0.314,0.392-1.073,1.531-2.035,2.974c-4.241,6.364-14.174,21.266-27.163,34.255
	c-16.226,16.227-38.765,20.418-39.716,20.589C8.965,204.867,8.848,204.878,8.73,204.878z M8.813,197.98
	c0.116,0.026,0.23,0.063,0.341,0.109c0.661,0.279,1.122,0.892,1.208,1.604l0.091,0.756c5.869-1.428,22.959-6.461,35.518-19.02
	c12.709-12.709,22.487-27.38,26.663-33.645c0.882-1.323,1.492-2.238,1.918-2.828l-7.303-7.303
	c-4.654,2.677-23.336,13.777-36.187,26.628c-10.846,10.847-19.328,24.659-23.066,31.228c0.128,0.078,0.25,0.171,0.36,0.278
	c0.574,0.559,0.759,1.404,0.472,2.151L8.813,197.98z M100.176,146.228c0.818,2.215,1.319,4.931,1.846,7.777
	c0.565,3.062,1.15,6.227,2.14,8.712c0.12,0.301,0.244,0.599,0.371,0.892c0.211-3.593,0.727-7.543,1.883-10.403
	c0.405-1.001,0.819-1.906,1.245-2.719c-0.566-0.344-1.245-0.73-2.076-1.186C104.229,148.557,102.242,147.422,100.176,146.228z
	 M113.084,149.662c0.441,0.475,0.847,0.989,1.284,1.595c0.044-0.964,0.011-1.729-0.109-2.153c-0.163-0.036-0.289-0.006-0.423,0.044
	C113.698,149.199,113.438,149.332,113.084,149.662z M70.366,135.114l6.807,6.807c0.365-0.4,0.758-0.828,1.17-1.275l-6.754-6.754
	L70.366,135.114z M85.481,138.856l0.913,0.914l2.969-2.97c0.024-0.025,0.05-0.051,0.076-0.075l1.109-1.109l-0.952-0.952
	l-2.895,2.896C86.295,137.989,85.887,138.423,85.481,138.856z M74.417,131.063l6.579,6.579c0.061-0.084,0.128-0.163,0.204-0.238
	l1.9-1.9l-6.561-6.562L74.417,131.063z M79.367,126.113l6.502,6.502c0.613-0.647,1.164-1.229,1.62-1.709l-0.774-0.774
	c-0.009-0.009-0.018-0.018-0.027-0.026l-4.125-4.125c-0.007-0.007-0.013-0.013-0.02-0.02l-1.512-1.513L79.367,126.113z
	 M86.957,124.717l0.438,0.438l0,0l0.788,0.787c3.995-3.604,15.525-14.357,20.476-22.67c2.854-4.793,4.512-9.103,6.116-13.271
	c1.784-4.639,3.47-9.021,6.527-12.877c5.451-6.872,46.765-45.482,48.521-47.123c0.268-0.259,7.212-6.909,14.839-9.615
	c2.132-0.757,4.171-1.32,5.971-1.817c4.501-1.243,7.082-2.04,7.79-3.947l0,0c0.771-2.077,0.071-6.589-0.766-9.972
	c-4.293,1.848-15.717,7.812-32.125,24.221l-41.13,41.13c-0.059,0.059-0.121,0.113-0.187,0.165
	c-0.043,0.033-4.976,4.009-8.929,13.453c-0.751,1.795-1.466,3.56-2.165,5.289c-3.239,8.004-6.298,15.564-11.343,21.617
	C97.221,115.993,90.198,122.029,86.957,124.717z"/>
<g>
</g>
<g>
</g>
<g>
</g>
<g>
</g>
<g>
</g>
<g>
</g>
<g>
</g>
<g>
</g>
<g>
</g>
<g>
</g>
<g>
</g>
<g>
</g>
<g>
</g>
<g>
</g>
<g>
</g>
</svg>
