<svg xmlns="http://www.w3.org/2000/svg" version="1.1" xmlns:xlink="http://www.w3.org/1999/xlink" xmlns:svgjs="http://svgjs.com/svgjs" width="2440" height="1560" preserveAspectRatio="none" viewBox="0 0 2440 1560"><g mask="url(&quot;#SvgjsMask1224&quot;)" fill="none"><rect width="2440" height="1560" x="0" y="0" fill="url(#SvgjsLinearGradient1225)"></rect><path d="M2562 1560L0 1560 L0 759.94Q146.68 784.63, 122 931.31Q116.09 722.07, 325.3333333333333 716.16Q364.71 633.53, 447.3333333333333 672.91Q582.11 604.35, 650.6666666666666 739.13Q774.33 659.46, 854 783.12Q925.16 650.94, 1057.3333333333333 722.1Q1217.88 679.31, 1260.6666666666665 839.86Q1374.46 831.65, 1382.6666666666665 945.45Q1460.01 900.79, 1504.6666666666665 978.13Q1530.92 882.38, 1626.6666666666665 908.63Q1662.49 741.12, 1829.9999999999998 776.95Q1893.51 637.13, 2033.333333333333 700.64Q2128.45 592.42, 2236.6666666666665 687.53Q2341.12 669.98, 2358.6666666666665 774.43Q2473.35 685.78, 2562 800.46z" fill="rgba(255, 204, 255, 1)"></path><path d="M2562 1560L0 1560 L0 902.51Q132.26 831.44, 203.33333333333331 963.7Q323.53 961.89, 325.3333333333333 1082.09Q339.9 893.32, 528.6666666666666 907.89Q641.83 817.72, 732 930.89Q859.99 936.88, 854 1064.86Q968.98 976.51, 1057.3333333333333 1091.49Q1057.96 970.12, 1179.3333333333333 970.75Q1216.1 885.52, 1301.3333333333333 922.29Q1392.63 810.25, 1504.6666666666665 901.54Q1692.54 886.08, 1707.9999999999998 1073.96Q1802.1 1046.06, 1829.9999999999998 1140.16Q1831.47 1019.63, 1951.9999999999998 1021.1Q2045.85 911.61, 2155.333333333333 1005.46Q2203.34 850.13, 2358.6666666666665 898.14Q2476.08 812.22, 2562 929.64z" fill="rgba(255, 179, 255, 1)"></path><path d="M2521.333333333333 1560L0 1560 L0 1156.26Q43.5 1077.76, 122 1121.26Q219.41 1096.67, 244 1194.08Q295.62 1123.69, 366 1175.31Q442.38 1129.69, 488 1206.08Q599.39 1195.47, 610 1306.86Q645.07 1219.92, 732 1254.99Q798.18 1199.17, 854 1265.35Q879.01 1168.36, 976 1193.37Q1046.38 1060.42, 1179.3333333333333 1130.8Q1304.71 1052.84, 1382.6666666666665 1178.21Q1543.33 1135.54, 1585.9999999999998 1296.21Q1617.17 1124.04, 1789.333333333333 1155.21Q1918.28 1080.83, 1992.6666666666663 1209.78Q2191.53 1205.31, 2195.9999999999995 1404.17Q2196.35 1282.53, 2317.9999999999995 1282.88Q2424.83 1186.38, 2521.333333333333 1293.21z" fill="rgba(255, 153, 255, 1)"></path><path d="M2562 1560L0 1560 L0 1570.19Q55.55 1503.74, 122 1559.29Q201.09 1435.05, 325.3333333333333 1514.14Q481.88 1467.36, 528.6666666666666 1623.91Q563.17 1536.41, 650.6666666666666 1570.91Q650.9 1449.14, 772.6666666666666 1449.37Q858.01 1331.38, 976 1416.72Q1020.42 1339.14, 1098 1383.56Q1259.72 1341.94, 1301.3333333333333 1503.66Q1337.89 1418.22, 1423.3333333333333 1454.77Q1508.99 1337.09, 1626.6666666666665 1422.74Q1796.59 1389.33, 1829.9999999999998 1559.26Q1907.82 1433.74, 2033.333333333333 1511.56Q2201.05 1475.94, 2236.6666666666665 1643.66Q2248.78 1533.77, 2358.6666666666665 1545.88Q2401.16 1385.04, 2562 1427.54z" fill="rgba(255, 179, 255, 1)"></path></g><defs><mask id="SvgjsMask1224"><rect width="2440" height="1560" fill="#ffffff"></rect></mask><linearGradient x1="9.02%" y1="-14.1%" x2="90.98%" y2="114.1%" gradientUnits="userSpaceOnUse" id="SvgjsLinearGradient1225"><stop stop-color="rgba(255, 255, 255, 1)" offset="0"></stop><stop stop-color="rgba(255, 204, 255, 1)" offset="1"></stop></linearGradient></defs></svg>