<?xml version="1.0" ?><svg viewBox="0 0 48 48" xmlns="http://www.w3.org/2000/svg"><title/><g data-name="35-Gear" id="_35-Gear"><path d="M46,19H42.32a18.86,18.86,0,0,0-1.83-4.42L43.09,12a2,2,0,0,0,0-2.83L38.85,4.91a2,2,0,0,0-2.83,0L33.41,7.51A18.88,18.88,0,0,0,29,5.68V2a2,2,0,0,0-2-2H21a2,2,0,0,0-2,2V5.68a18.88,18.88,0,0,0-4.41,1.83L12,4.91a2,2,0,0,0-2.83,0L4.91,9.15a2,2,0,0,0,0,2.83l2.61,2.61A18.86,18.86,0,0,0,5.68,19H2a2,2,0,0,0-2,2v6a2,2,0,0,0,2,2H5.68a18.86,18.86,0,0,0,1.83,4.42L4.91,36a2,2,0,0,0,0,2.83l4.24,4.24a2,2,0,0,0,2.83,0l2.61-2.61A18.88,18.88,0,0,0,19,42.32V46a2,2,0,0,0,2,2h6a2,2,0,0,0,2-2V42.32a18.88,18.88,0,0,0,4.41-1.83L36,43.09a2,2,0,0,0,2.83,0l4.24-4.24a2,2,0,0,0,0-2.83l-2.61-2.61A18.86,18.86,0,0,0,42.32,29H46a2,2,0,0,0,2-2V21A2,2,0,0,0,46,19Zm0,8H41.54a1,1,0,0,0-1,.78A16.85,16.85,0,0,1,38.38,33a1,1,0,0,0,.14,1.24l3.16,3.16-4.24,4.24-3.16-3.16A1,1,0,0,0,33,38.38a16.82,16.82,0,0,1-5.26,2.18,1,1,0,0,0-.78,1V46H21V41.54a1,1,0,0,0-.78-1A16.82,16.82,0,0,1,15,38.38a1,1,0,0,0-1.24.14l-3.16,3.16L6.32,37.43l3.16-3.16A1,1,0,0,0,9.62,33a16.85,16.85,0,0,1-2.18-5.26,1,1,0,0,0-1-.78H2V21H6.46a1,1,0,0,0,1-.78A16.85,16.85,0,0,1,9.62,15a1,1,0,0,0-.14-1.24L6.32,10.56l4.24-4.24,3.16,3.16A1,1,0,0,0,15,9.62a16.82,16.82,0,0,1,5.26-2.18,1,1,0,0,0,.78-1V2h6V6.46a1,1,0,0,0,.78,1A16.82,16.82,0,0,1,33,9.62a1,1,0,0,0,1.24-.14l3.16-3.16,4.24,4.24-3.16,3.16A1,1,0,0,0,38.38,15a16.85,16.85,0,0,1,2.18,5.26,1,1,0,0,0,1,.78H46Z"/><path d="M24,15a9,9,0,1,0,9,9A9,9,0,0,0,24,15Zm0,16a7,7,0,1,1,7-7A7,7,0,0,1,24,31Z"/></g></svg>